<svg id="Layer_1" data-name="Layer 1" xmlns="http://www.w3.org/2000/svg" viewBox="0 0 144 120"><defs><style>.cls-1{fill:#d7d7cd;fill-opacity:0.7;}.cls-2{fill:#fff;}.cls-2,.cls-5,.cls-7{stroke:#111;stroke-width:2px;}.cls-2,.cls-3,.cls-4,.cls-5,.cls-6{stroke-linecap:round;stroke-miterlimit:10;}.cls-3,.cls-4,.cls-5,.cls-6{fill:none;}.cls-3{stroke:#fa8246;stroke-opacity:0.5;}.cls-3,.cls-4{stroke-width:6px;}.cls-4,.cls-6{stroke:#fff;}.cls-6{stroke-width:7px;}.cls-7{fill:#b1c6e7;}</style></defs><ellipse class="cls-1" cx="72.39" cy="101.72" rx="25.39" ry="3.78"/><path class="cls-2" d="M104.17,66.36a6.32,6.32,0,0,0-1-3.39,6.15,6.15,0,0,0,1-3.38,6.27,6.27,0,0,0-2.33-4.9,6.18,6.18,0,0,0,.76-3,6.32,6.32,0,0,0-5.76-6.28c0-.12,0-.25,0-.36a7.68,7.68,0,0,0-7.66-7.67l-.46,0a7,7,0,0,0-13.3-.11A15.18,15.18,0,0,0,75,39.5V86.18A6.31,6.31,0,0,0,87.25,88.3a7.86,7.86,0,0,0,9.83-7.64c0-.15,0-.3,0-.45a6.77,6.77,0,0,0,5.53-6.65,6.87,6.87,0,0,0-.49-2.54,6.32,6.32,0,0,0,2.07-4.67Z"/><path class="cls-3" d="M79.7,82.43a4.33,4.33,0,0,1,7.82-1.82"/><path class="cls-3" d="M86.83,45a4.33,4.33,0,0,1-6.28-5"/><path class="cls-3" d="M90,69.56a6.36,6.36,0,0,1-2.64-2.93,8.3,8.3,0,0,1-.51-4.89"/><path class="cls-4" d="M88.62,74.38a7.29,7.29,0,0,1,3.94-7"/><path class="cls-3" d="M88.62,74.38a7.29,7.29,0,0,1,3.94-7"/><path class="cls-3" d="M80.68,59.9a6.28,6.28,0,0,1,2-3.43,8.44,8.44,0,0,1,4.5-2"/><path class="cls-4" d="M92.65,55.66a7.22,7.22,0,0,1-3.9-.33,7.41,7.41,0,0,1-3.5-2.76"/><path class="cls-3" d="M92.65,55.66a7.22,7.22,0,0,1-3.9-.33,7.41,7.41,0,0,1-3.5-2.76"/><path class="cls-5" d="M79.7,82.43a4.33,4.33,0,0,1,7.82-1.82"/><path class="cls-5" d="M86.83,45a4.33,4.33,0,0,1-6.28-5"/><path class="cls-5" d="M90,69.56a6.36,6.36,0,0,1-2.64-2.93,8.3,8.3,0,0,1-.51-4.89"/><path class="cls-5" d="M88.62,74.38a7.29,7.29,0,0,1,3.94-7"/><path class="cls-5" d="M80.68,59.9a6.28,6.28,0,0,1,2-3.43,8.44,8.44,0,0,1,4.5-2"/><path class="cls-5" d="M92.65,55.66a7.22,7.22,0,0,1-3.9-.33,7.41,7.41,0,0,1-3.5-2.76"/><path class="cls-5" d="M86.38,41.31s2.83-.16,2.35-3.9"/><path class="cls-5" d="M92.67,47.73s3.23,0,4.07-2.29"/><path class="cls-5" d="M98,53.75a4.66,4.66,0,0,1,3.94,1"/><path class="cls-5" d="M96.89,72.05s2.3,1.48,5.24-1.07"/><path class="cls-5" d="M85.3,84.58a5.94,5.94,0,0,0,1.92,3.86"/><path class="cls-2" d="M41.88,71a6.69,6.69,0,0,0-.5,2.54,6.78,6.78,0,0,0,5.54,6.65c0,.15,0,.3,0,.45a7.9,7.9,0,0,0,7.89,7.89,7.43,7.43,0,0,0,1.94-.25A6.31,6.31,0,0,0,69,86.19V39.5a15,15,0,0,0-.43-2.19,7,7,0,0,0-13.3.1H54.8a7.67,7.67,0,0,0-7.66,7.66c0,.12,0,.24,0,.37a6.32,6.32,0,0,0-5.76,6.28,6.21,6.21,0,0,0,.76,3A6.32,6.32,0,0,0,40.8,63a6.2,6.2,0,0,0-1,3.38A6.33,6.33,0,0,0,41.89,71Z"/><path class="cls-3" d="M55.36,74.38a7.28,7.28,0,0,0-4-7"/><path class="cls-4" d="M54,69.56a6.36,6.36,0,0,0,2.65-2.93,8.38,8.38,0,0,0,.51-4.89"/><path class="cls-3" d="M54,69.56a6.36,6.36,0,0,0,2.65-2.93,8.38,8.38,0,0,0,.51-4.89"/><path class="cls-6" d="M64.28,82.43a4.33,4.33,0,0,0-7.82-1.82"/><path class="cls-6" d="M64.28,82.43a4.33,4.33,0,0,0-7.82-1.82"/><path class="cls-3" d="M51.33,55.66a7.22,7.22,0,0,0,3.9-.33,7.41,7.41,0,0,0,3.5-2.76"/><path class="cls-4" d="M63.37,60.26a6.4,6.4,0,0,0-2-3.42,8.42,8.42,0,0,0-4.49-2"/><path class="cls-3" d="M63.37,60.26a6.4,6.4,0,0,0-2-3.42,8.42,8.42,0,0,0-4.49-2"/><path class="cls-3" d="M64.28,82.43a4.33,4.33,0,0,0-7.82-1.82"/><path class="cls-3" d="M57.14,45a4.34,4.34,0,0,0,6.29-5"/><path class="cls-5" d="M64.28,82.36a4.33,4.33,0,0,0-7.82-1.82"/><path class="cls-5" d="M57.14,45a4.34,4.34,0,0,0,6.29-5"/><path class="cls-5" d="M54,69.49a6.31,6.31,0,0,0,2.65-2.93,8.38,8.38,0,0,0,.51-4.89"/><path class="cls-5" d="M55.36,74.31a7.3,7.3,0,0,0-4-7"/><path class="cls-5" d="M63.3,59.83a6.33,6.33,0,0,0-2-3.42,8.37,8.37,0,0,0-4.5-2"/><path class="cls-5" d="M51.33,55.6a7.31,7.31,0,0,0,7.4-3.1"/><path class="cls-5" d="M57.6,41.31s-2.84-.16-2.35-3.9"/><path class="cls-5" d="M46,53.75a4.66,4.66,0,0,0-3.94,1"/><path class="cls-5" d="M47.08,72.05S44.79,73.53,41.84,71"/><path class="cls-5" d="M58.68,84.58a5.92,5.92,0,0,1-1.93,3.86"/><path class="cls-7" d="M78.6,15.74a4.06,4.06,0,0,0-5.84,0l-.94,1-.95-1a4.06,4.06,0,0,0-5.84,0,4.32,4.32,0,0,0,0,6l.94,1,5.85,6,5.84-6,.94-1A4.32,4.32,0,0,0,78.6,15.74Z"/></svg>