<svg id="Layer_1" data-name="Layer 1" xmlns="http://www.w3.org/2000/svg" viewBox="0 0 144 120"><defs><style>.cls-1{fill:#d7d7cd;}.cls-1,.cls-2,.cls-7{fill-opacity:0.5;}.cls-2{fill:#fab491;}.cls-3{fill:#fff;}.cls-4,.cls-8{fill:none;stroke:#111;stroke-miterlimit:10;stroke-width:2px;}.cls-5{fill:#b1c6e7;}.cls-6{fill:#111;}.cls-7{fill:#fa9b69;}.cls-8{stroke-linecap:round;}</style></defs><path class="cls-1" d="M52.07,95.49c12.82.81,23.84-8,24.63-19.67S67.74,54,54.93,53.23s-23.84,8-24.63,19.66S39.26,94.68,52.07,95.49Z"/><path class="cls-2" d="M113.07,54.49c2.51-7-2.24-15-10.62-18,.64-6.14-3.9-12.38-11.16-14.81S76.45,21.57,73,26.78C64.81,24.46,56.38,27.91,54,34.73c-1.93,5.41.42,11.4,5.44,15.22L52.86,68.21,92.31,81.37l6.51-18.21C105.33,63.26,111.15,60,113.07,54.49Z"/><path class="cls-3" d="M113.07,54.49c2.51-7-2.24-15-10.62-18,.64-6.14-3.9-12.38-11.16-14.81S76.45,21.57,73,26.78C64.81,24.46,56.38,27.91,54,34.73c-1.93,5.41.42,11.4,5.44,15.22L52.86,68.21,92.31,81.37l6.51-18.21C105.33,63.26,111.15,60,113.07,54.49Z"/><path class="cls-4" d="M113.07,54.49c2.51-7-2.24-15-10.62-18,.64-6.14-3.9-12.38-11.16-14.81S76.45,21.57,73,26.78C64.81,24.46,56.38,27.91,54,34.73c-1.93,5.41.42,11.4,5.44,15.22L52.86,68.21,92.31,81.37l6.51-18.21C105.33,63.26,111.15,60,113.07,54.49Z"/><circle class="cls-5" cx="81.08" cy="51.76" r="13.54"/><path class="cls-6" d="M83.57,55.88a9.37,9.37,0,0,0,3.14-4.83c.65-2.56-.71-4.16-2.36-4.53a3.47,3.47,0,0,0-4.17,2.74c-.45,1.69-.34,3.09.84,5.85a4.45,4.45,0,0,1-2.84.45c-2.4-.55-2.25-2.91-1.72-4.84a22.44,22.44,0,0,1,2.38-5.22l-2.32-.57A21,21,0,0,0,74,51c-.93,3.65.91,6,3.37,6.54a6.19,6.19,0,0,0,4.32-.6l.59,1.55,2.59.59Zm-.11-2.73c-.28.32-.75.81-.75.81l-.33-.83a5,5,0,0,1-.25-3c.31-1.14,1-1.77,1.77-1.59s1.1,1.09.76,2.29A5.41,5.41,0,0,1,83.46,53.15Z"/><path class="cls-3" d="M95,83.28a1.05,1.05,0,0,1-1.33.62L50.45,69.45a1,1,0,0,1-.64-1.29l2-5.62a1.06,1.06,0,0,1,1.34-.62L96.42,76.37a1,1,0,0,1,.64,1.29Z"/><path class="cls-7" d="M95,83.28a1.05,1.05,0,0,1-1.33.62L50.45,69.45a1,1,0,0,1-.64-1.29l2-5.62a1.06,1.06,0,0,1,1.34-.62L96.42,76.37a1,1,0,0,1,.64,1.29Z"/><path class="cls-3" d="M95,83.28a1.05,1.05,0,0,1-1.33.62L50.45,69.45a1,1,0,0,1-.64-1.29l2-5.62a1.06,1.06,0,0,1,1.34-.62L96.42,76.37a1,1,0,0,1,.64,1.29Z"/><path class="cls-7" d="M95,83.28a1.05,1.05,0,0,1-1.33.62L50.45,69.45a1,1,0,0,1-.64-1.29l2-5.62a1.06,1.06,0,0,1,1.34-.62L96.42,76.37a1,1,0,0,1,.64,1.29Z"/><path class="cls-4" d="M95,83.28a1.05,1.05,0,0,1-1.33.62L50.45,69.45a1,1,0,0,1-.64-1.29l2-5.62a1.06,1.06,0,0,1,1.34-.62L96.42,76.37a1,1,0,0,1,.64,1.29Z"/><path class="cls-8" d="M82.06,32.15a18.35,18.35,0,0,0-8-5.11m0,0L73,26.73C73.41,26.83,73.78,26.93,74.1,27Z"/><path class="cls-8" d="M100.69,43.76a16.63,16.63,0,0,0,1.65-9.09m0,0c0-.36,0-.72-.1-1.08A7.89,7.89,0,0,1,102.34,34.67Z"/><path class="cls-4" d="M97.27,90.91l1.93,3.86"/><path class="cls-4" d="M101.81,86.28l7.4,2.34"/><path class="cls-4" d="M89.18,90.19l-1,9.06"/></svg>