<svg id="Layer_1" data-name="Layer 1" xmlns="http://www.w3.org/2000/svg" viewBox="0 0 144 120"><defs><style>.cls-1{fill:#d7d7cd;}.cls-1,.cls-4{fill-opacity:0.5;}.cls-2,.cls-3{fill:#fff;}.cls-2,.cls-5,.cls-6{stroke:#111;stroke-miterlimit:10;stroke-width:2px;}.cls-4{fill:#fa9b69;}.cls-5{fill:none;}.cls-6{fill:#b1c6e7;}</style></defs><path class="cls-1" d="M83.46,39.61H37.82A3.37,3.37,0,0,0,34.44,43v45.5a3.37,3.37,0,0,0,3.38,3.37H83.46a3.37,3.37,0,0,0,3.37-3.37V43A3.36,3.36,0,0,0,83.46,39.61Z"/><path class="cls-2" d="M91.41,31.68H45.76a3.37,3.37,0,0,0-3.37,3.37v45.5a3.36,3.36,0,0,0,3.37,3.36H91.41a3.36,3.36,0,0,0,3.37-3.36V35.05A3.37,3.37,0,0,0,91.41,31.68Z"/><path class="cls-3" d="M55.84,25.6H54.11a1.69,1.69,0,0,0-1.69,1.68v8.81a1.69,1.69,0,0,0,1.69,1.68h1.73a1.68,1.68,0,0,0,1.68-1.68V27.28A1.68,1.68,0,0,0,55.84,25.6Z"/><path class="cls-4" d="M55.84,25.6H54.11a1.69,1.69,0,0,0-1.69,1.68v8.81a1.69,1.69,0,0,0,1.69,1.68h1.73a1.68,1.68,0,0,0,1.68-1.68V27.28A1.68,1.68,0,0,0,55.84,25.6Z"/><path class="cls-3" d="M55.84,25.6H54.11a1.69,1.69,0,0,0-1.69,1.68v8.81a1.69,1.69,0,0,0,1.69,1.68h1.73a1.68,1.68,0,0,0,1.68-1.68V27.28A1.68,1.68,0,0,0,55.84,25.6Z"/><path class="cls-4" d="M55.84,25.6H54.11a1.69,1.69,0,0,0-1.69,1.68v8.81a1.69,1.69,0,0,0,1.69,1.68h1.73a1.68,1.68,0,0,0,1.68-1.68V27.28A1.68,1.68,0,0,0,55.84,25.6Z"/><path class="cls-5" d="M55.84,25.6H54.11a1.69,1.69,0,0,0-1.69,1.68v8.81a1.69,1.69,0,0,0,1.69,1.68h1.73a1.68,1.68,0,0,0,1.68-1.68V27.28A1.68,1.68,0,0,0,55.84,25.6Z"/><path class="cls-3" d="M83.07,25.6H81.34a1.69,1.69,0,0,0-1.69,1.68v8.81a1.69,1.69,0,0,0,1.69,1.68h1.73a1.69,1.69,0,0,0,1.69-1.68V27.28A1.69,1.69,0,0,0,83.07,25.6Z"/><path class="cls-4" d="M83.07,25.6H81.34a1.69,1.69,0,0,0-1.69,1.68v8.81a1.69,1.69,0,0,0,1.69,1.68h1.73a1.69,1.69,0,0,0,1.69-1.68V27.28A1.69,1.69,0,0,0,83.07,25.6Z"/><path class="cls-3" d="M83.07,25.6H81.34a1.69,1.69,0,0,0-1.69,1.68v8.81a1.69,1.69,0,0,0,1.69,1.68h1.73a1.69,1.69,0,0,0,1.69-1.68V27.28A1.69,1.69,0,0,0,83.07,25.6Z"/><path class="cls-4" d="M83.07,25.6H81.34a1.69,1.69,0,0,0-1.69,1.68v8.81a1.69,1.69,0,0,0,1.69,1.68h1.73a1.69,1.69,0,0,0,1.69-1.68V27.28A1.69,1.69,0,0,0,83.07,25.6Z"/><path class="cls-5" d="M83.07,25.6H81.34a1.69,1.69,0,0,0-1.69,1.68v8.81a1.69,1.69,0,0,0,1.69,1.68h1.73a1.69,1.69,0,0,0,1.69-1.68V27.28A1.69,1.69,0,0,0,83.07,25.6Z"/><path class="cls-5" d="M42.39,45.72h52.4"/><path class="cls-3" d="M65,52.09H61.49a.67.67,0,0,0-.67.67v3.48a.67.67,0,0,0,.67.67H65a.68.68,0,0,0,.68-.67V52.76A.68.68,0,0,0,65,52.09Z"/><path class="cls-5" d="M65,52.09H61.49a.67.67,0,0,0-.67.67v3.48a.67.67,0,0,0,.67.67H65a.68.68,0,0,0,.68-.67V52.76A.68.68,0,0,0,65,52.09Z"/><path class="cls-3" d="M75.68,52.09H72.19a.67.67,0,0,0-.67.67v3.48a.67.67,0,0,0,.67.67h3.49a.67.67,0,0,0,.68-.67V52.76A.67.67,0,0,0,75.68,52.09Z"/><path class="cls-5" d="M75.68,52.09H72.19a.67.67,0,0,0-.67.67v3.48a.67.67,0,0,0,.67.67h3.49a.67.67,0,0,0,.68-.67V52.76A.67.67,0,0,0,75.68,52.09Z"/><path class="cls-3" d="M86.39,52.09H82.9a.68.68,0,0,0-.68.67v3.48a.68.68,0,0,0,.68.67h3.49a.67.67,0,0,0,.67-.67V52.76A.67.67,0,0,0,86.39,52.09Z"/><path class="cls-5" d="M86.39,52.09H82.9a.68.68,0,0,0-.68.67v3.48a.68.68,0,0,0,.68.67h3.49a.67.67,0,0,0,.67-.67V52.76A.67.67,0,0,0,86.39,52.09Z"/><path class="cls-3" d="M54.28,61.4H50.79a.67.67,0,0,0-.68.67v3.48a.67.67,0,0,0,.68.67h3.49a.67.67,0,0,0,.67-.67V62.07A.67.67,0,0,0,54.28,61.4Z"/><path class="cls-5" d="M54.28,61.4H50.79a.67.67,0,0,0-.68.67v3.48a.67.67,0,0,0,.68.67h3.49a.67.67,0,0,0,.67-.67V62.07A.67.67,0,0,0,54.28,61.4Z"/><path class="cls-3" d="M65,61.4H61.49a.67.67,0,0,0-.67.67v3.48a.67.67,0,0,0,.67.67H65a.68.68,0,0,0,.68-.67V62.07A.68.68,0,0,0,65,61.4Z"/><path class="cls-5" d="M65,61.4H61.49a.67.67,0,0,0-.67.67v3.48a.67.67,0,0,0,.67.67H65a.68.68,0,0,0,.68-.67V62.07A.68.68,0,0,0,65,61.4Z"/><path class="cls-3" d="M75.68,61.4H72.19a.67.67,0,0,0-.67.67v3.48a.67.67,0,0,0,.67.67h3.49a.67.67,0,0,0,.68-.67V62.07A.67.67,0,0,0,75.68,61.4Z"/><path class="cls-5" d="M75.68,61.4H72.19a.67.67,0,0,0-.67.67v3.48a.67.67,0,0,0,.67.67h3.49a.67.67,0,0,0,.68-.67V62.07A.67.67,0,0,0,75.68,61.4Z"/><path class="cls-3" d="M86.39,61.4H82.9a.68.68,0,0,0-.68.67v3.48a.68.68,0,0,0,.68.67h3.49a.67.67,0,0,0,.67-.67V62.07A.67.67,0,0,0,86.39,61.4Z"/><path class="cls-5" d="M86.39,61.4H82.9a.68.68,0,0,0-.68.67v3.48a.68.68,0,0,0,.68.67h3.49a.67.67,0,0,0,.67-.67V62.07A.67.67,0,0,0,86.39,61.4Z"/><path class="cls-3" d="M54.28,70.71H50.79a.67.67,0,0,0-.68.67v3.48a.67.67,0,0,0,.68.67h3.49a.67.67,0,0,0,.67-.67V71.38A.67.67,0,0,0,54.28,70.71Z"/><path class="cls-5" d="M54.28,70.71H50.79a.67.67,0,0,0-.68.67v3.48a.67.67,0,0,0,.68.67h3.49a.67.67,0,0,0,.67-.67V71.38A.67.67,0,0,0,54.28,70.71Z"/><path class="cls-3" d="M65,70.71H61.49a.67.67,0,0,0-.67.67v3.48a.67.67,0,0,0,.67.67H65a.68.68,0,0,0,.68-.67V71.38A.68.68,0,0,0,65,70.71Z"/><path class="cls-5" d="M65,70.71H61.49a.67.67,0,0,0-.67.67v3.48a.67.67,0,0,0,.67.67H65a.68.68,0,0,0,.68-.67V71.38A.68.68,0,0,0,65,70.71Z"/><path class="cls-3" d="M75.68,70.71H72.19a.67.67,0,0,0-.67.67v3.48a.67.67,0,0,0,.67.67h3.49a.67.67,0,0,0,.68-.67V71.38A.67.67,0,0,0,75.68,70.71Z"/><path class="cls-5" d="M75.68,70.71H72.19a.67.67,0,0,0-.67.67v3.48a.67.67,0,0,0,.67.67h3.49a.67.67,0,0,0,.68-.67V71.38A.67.67,0,0,0,75.68,70.71Z"/><path class="cls-3" d="M86.39,70.71H82.9a.68.68,0,0,0-.68.67v3.48a.68.68,0,0,0,.68.67h3.49a.67.67,0,0,0,.67-.67V71.38A.67.67,0,0,0,86.39,70.71Z"/><path class="cls-5" d="M86.39,70.71H82.9a.68.68,0,0,0-.68.67v3.48a.68.68,0,0,0,.68.67h3.49a.67.67,0,0,0,.67-.67V71.38A.67.67,0,0,0,86.39,70.71Z"/><path class="cls-6" d="M92.51,94.4a17,17,0,1,0-17.06-17A17,17,0,0,0,92.51,94.4Z"/><path class="cls-3" d="M88.21,69.07h-.06a1.57,1.57,0,0,0-1.57,1.56V84.17a1.57,1.57,0,0,0,1.57,1.56h.06a1.57,1.57,0,0,0,1.57-1.56V70.63A1.57,1.57,0,0,0,88.21,69.07Z"/><path class="cls-5" d="M88.21,69.07h-.06a1.57,1.57,0,0,0-1.57,1.56V84.17a1.57,1.57,0,0,0,1.57,1.56h.06a1.57,1.57,0,0,0,1.57-1.56V70.63A1.57,1.57,0,0,0,88.21,69.07Z"/><path class="cls-3" d="M96.86,69.07h0a1.56,1.56,0,0,0-1.57,1.56V84.17a1.57,1.57,0,0,0,1.57,1.57h0a1.57,1.57,0,0,0,1.57-1.57V70.63A1.56,1.56,0,0,0,96.86,69.07Z"/><path class="cls-5" d="M96.86,69.07h0a1.56,1.56,0,0,0-1.57,1.56V84.17a1.57,1.57,0,0,0,1.57,1.57h0a1.57,1.57,0,0,0,1.57-1.57V70.63A1.56,1.56,0,0,0,96.86,69.07Z"/></svg>