<svg id="Layer_1" data-name="Layer 1" xmlns="http://www.w3.org/2000/svg" viewBox="0 0 144 120"><defs><style>.cls-1,.cls-2{fill:#d7d7cd;}.cls-1{fill-opacity:0.7;}.cls-3,.cls-5{fill:#fff;}.cls-3,.cls-4,.cls-7,.cls-9{stroke:#111;stroke-width:2px;}.cls-4,.cls-6{fill:#b1c6e7;}.cls-6{fill-opacity:0.5;}.cls-7,.cls-9{fill:none;}.cls-8{fill:#111;}.cls-9{stroke-linecap:round;stroke-miterlimit:10;}.cls-10{fill:#fa9b69;}</style></defs><path class="cls-1" d="M65,111.06c11.85-1,21.14-5.75,20.74-10.72s-10.33-8.23-22.18-7.29S42.44,98.8,42.84,103.77,53.17,112,65,111.06Z"/><path class="cls-2" d="M50.06,59.62l19.53-8.31,9.76,4.15L66.29,60.79,58.62,71Z"/><path class="cls-3" d="M49.56,59.88a.24.24,0,0,1-.19-.06L35,54.74a.68.68,0,0,1-.44-.56.66.66,0,0,1,.38-.62L57.36,42.72a.39.39,0,0,1,.25-.06.89.89,0,0,1,.38.12l11.6,8a.6.6,0,0,1-.12,1.06l-19.65,8C49.75,59.82,49.62,59.88,49.56,59.88Z"/><path class="cls-3" d="M79.23,55.23a.42.42,0,0,1-.26-.06l-8.55-3.53a.74.74,0,0,1-.32-.31.68.68,0,0,1,0-.49l4.37-9.79a.62.62,0,0,1,.57-.38.21.21,0,0,1,.19.07l19.59,7.12a.71.71,0,0,1,.45.56.49.49,0,0,1-.39.56l-15.4,6.19C79.42,55.23,79.35,55.23,79.23,55.23Z"/><path class="cls-3" d="M58.5,71.53a.58.58,0,0,1-.51-.25.55.55,0,0,1,0-.74l7.8-10.29c.06-.06.19-.18.25-.18L96.91,47.55a.42.42,0,0,1,.26-.06.68.68,0,0,1,.5.19.64.64,0,0,1,.07.74l-5.58,9.35a.58.58,0,0,1-.32.25L58.75,71.47A.48.48,0,0,1,58.5,71.53Z"/><path class="cls-3" d="M57.17,71a.23.23,0,0,1-.19-.06L36.88,63.6a.77.77,0,0,1-.31-.31l-4.5-8.92a.56.56,0,0,1,.12-.69.72.72,0,0,1,.45-.18.25.25,0,0,1,.19.06L53,60.62a1,1,0,0,1,.38.31L57.74,70a.55.55,0,0,1-.13.68A.54.54,0,0,1,57.17,71Z"/><path class="cls-4" d="M63.63,100.89a.57.57,0,0,1-.31-.06.46.46,0,0,1-.32-.43L57.93,71.09a.63.63,0,0,1,.38-.68L91.46,58.15c.07,0,.13-.07.26-.07a.51.51,0,0,1,.31.07c.19.06.26.24.32.43l5.07,28.07a.63.63,0,0,1-.38.68L64,100.77C63.82,100.83,63.76,100.89,63.63,100.89Z"/><path class="cls-5" d="M63.19,101A.24.24,0,0,1,63,101L42.27,93.4a.54.54,0,0,1-.38-.5L36.25,63.66a.57.57,0,0,1,.19-.56.48.48,0,0,1,.38-.12A.24.24,0,0,1,37,63L57.74,70.6a.54.54,0,0,1,.38.49l5.64,29.31a.57.57,0,0,1-.19.56A2.29,2.29,0,0,1,63.19,101Z"/><path class="cls-6" d="M63.19,101A.24.24,0,0,1,63,101L42.27,93.4a.54.54,0,0,1-.38-.5L36.25,63.66a.57.57,0,0,1,.19-.56.48.48,0,0,1,.38-.12A.24.24,0,0,1,37,63L57.74,70.6a.54.54,0,0,1,.38.49l5.64,29.31a.57.57,0,0,1-.19.56A2.29,2.29,0,0,1,63.19,101Z"/><path class="cls-7" d="M63.19,101A.24.24,0,0,1,63,101L42.27,93.4a.54.54,0,0,1-.38-.5L36.25,63.66a.57.57,0,0,1,.19-.56.48.48,0,0,1,.38-.12A.24.24,0,0,1,37,63L57.74,70.6a.54.54,0,0,1,.38.49l5.64,29.31a.57.57,0,0,1-.19.56A2.29,2.29,0,0,1,63.19,101Z"/><path class="cls-8" d="M84.55,80.7a9.53,9.53,0,0,0,0-6c-.89-2.6-3-3.28-4.63-2.73a3.49,3.49,0,0,0-2.09,4.65c.57,1.74,1.46,2.91,4.06,4.71a4.45,4.45,0,0,1-2.22,1.92c-2.41.81-3.61-1.36-4.25-3.35a23.17,23.17,0,0,1-.88-5.88l-2.35.74A21.83,21.83,0,0,0,73.4,81.5c1.26,3.72,4.18,4.77,6.65,4a6.17,6.17,0,0,0,3.42-2.85l1.4,1,2.6-.87ZM82.9,78.34c-.06.44-.19,1.12-.19,1.12L82,78.9a5.35,5.35,0,0,1-1.9-2.48c-.38-1.17-.13-2.1.64-2.35s1.58.37,2,1.61A5.47,5.47,0,0,1,82.9,78.34Z"/><path class="cls-9" d="M100.08,55l10.59,3.47"/><path class="cls-9" d="M103.19,48.42,112,47.37"/><path class="cls-9" d="M99.26,42.53,105.34,37"/><path class="cls-10" d="M52.91,23.82c14.29-.63,14.78-1.15,15.42-15,.65,13.89,1.19,14.41,15.48,15C69.52,24.45,69,25,68.33,38.87,67.69,24.92,67.2,24.4,52.91,23.82Z"/><path class="cls-10" d="M74.7,12.74c3.29-.15,3.43-.3,3.56-4,.14,3.66.27,3.81,3.57,4-3.3.14-3.43.29-3.57,4C78.13,13,78,12.88,74.7,12.74Z"/><path class="cls-10" d="M52.12,33.72c3.66-.13,3.81-.27,4-3.56.15,3.29.3,3.43,4,3.56-3.66.13-3.81.27-4,3.56C55.93,34,55.78,33.85,52.12,33.72Z"/></svg>