<svg id="Layer_1" data-name="Layer 1" xmlns="http://www.w3.org/2000/svg" viewBox="0 0 144 120"><defs><style>.cls-1,.cls-5,.cls-6{fill:#fff;}.cls-1,.cls-11,.cls-12,.cls-2,.cls-7{stroke:#111;}.cls-1,.cls-2{stroke-linecap:round;stroke-linejoin:round;}.cls-1,.cls-11,.cls-12{stroke-width:2px;}.cls-1,.cls-4,.cls-5{fill-rule:evenodd;}.cls-11,.cls-2,.cls-7{fill:none;}.cls-2{stroke-width:1.3px;}.cls-3{fill:#111;}.cls-10,.cls-4{fill:#fa9b69;}.cls-11,.cls-12,.cls-7{stroke-miterlimit:10;}.cls-7{stroke-width:2.13px;}.cls-12,.cls-8{fill:#f2f0ec;}.cls-9{fill:#fab491;fill-opacity:0.5;}</style></defs><path class="cls-1" d="M59.74,45.49a1.18,1.18,0,0,0-1.47.76L50.51,63a1.1,1.1,0,0,0,.78,1.43c5.28,1.68,10.48,3.42,15.76,5.09a1.11,1.11,0,0,0,1.47-.76l4.09-17.93a1.18,1.18,0,0,0-.78-1.44Z"/><path class="cls-2" d="M61.1,49.12,55.4,62.55"/><path class="cls-2" d="M68.49,51.52,64.79,65.6"/><path class="cls-2" d="M64.85,50.13,60,64.23"/><path class="cls-3" d="M65.35,47.15l2.52.77,4.45-13.77-2.52-.77Z"/><path class="cls-4" d="M73.49,33.81l-.13,0-3.93-1.22a.67.67,0,0,1-.45-.82l4-12.24a2.69,2.69,0,0,1,2.84-1.8,1.49,1.49,0,0,1,.52.11h.07A2.53,2.53,0,0,1,78,19.09a2.5,2.5,0,0,1,.2,2l-4,12.31A.71.71,0,0,1,73.49,33.81Z"/><path class="cls-3" d="M75.74,18.29a.81.81,0,0,1,.39.1h.06a1.9,1.9,0,0,1,1.28,2.45L73.56,33.17l-3.93-1.23,4-12.24A2.11,2.11,0,0,1,75.74,18.29ZM75.87,17a3.32,3.32,0,0,0-3.48,2.26l-4,12.3a1.38,1.38,0,0,0,.83,1.64l3.93,1.22.26,0a1.41,1.41,0,0,0,1.42-.9l4-12.24a3.28,3.28,0,0,0-2.17-4.1h-.07A3.36,3.36,0,0,0,75.87,17Z"/><path class="cls-5" d="M75.43,21.3c-.13,0-.26,0-.32-.1a1,1,0,0,1-.46-1.34,1,1,0,0,1,1-.55c.13,0,.26,0,.32.1a1,1,0,0,1-.53,1.89Z"/><path class="cls-3" d="M75.6,19.63a.66.66,0,0,1,.26.09.67.67,0,0,1,.31.88.72.72,0,0,1-.7.38.5.5,0,0,1-.26-.09.67.67,0,0,1,.39-1.26Zm.07-.64a1.37,1.37,0,0,0-1.34.71,1,1,0,0,0,0,1,1.29,1.29,0,0,0,.65.78,1.24,1.24,0,0,0,.46.11,1.37,1.37,0,0,0,1.33-.71,1.28,1.28,0,0,0-.62-1.75A1.61,1.61,0,0,0,75.67,19Z"/><path class="cls-6" d="M79.47,86.36,36.92,98.66a10.38,10.38,0,0,1-12.85-6.8l-2.79-9.13A1.14,1.14,0,0,1,22,81.31l60.24-17.4a1.18,1.18,0,0,1,1.45.74l2.79,9.12A10.17,10.17,0,0,1,79.47,86.36Z"/><path class="cls-7" d="M79.47,86.36,36.92,98.66a10.38,10.38,0,0,1-12.85-6.8l-2.79-9.13A1.14,1.14,0,0,1,22,81.31l60.24-17.4a1.18,1.18,0,0,1,1.45.74l2.79,9.12A10.17,10.17,0,0,1,79.47,86.36Z"/><rect class="cls-8" x="21.23" y="96.24" width="72.03" height="6.77" rx="3.38"/><path class="cls-9" d="M86.51,74.11c-4.54,4-11.22,6.75-19.88,8.17-4.19.68-8.44,1-12.56,1.36-3.43.28-7,.56-10.47,1.07-8.66,1.19-14.77,3.46-19.77,6.92,0,0,2.5,7.94,10.41,7.26L80.81,85.73A10.29,10.29,0,0,0,86.51,74.11Z"/><path class="cls-10" d="M44.82,88.76a4.68,4.68,0,0,0,3.23-5.86,4.85,4.85,0,0,0-6-3.15,4.68,4.68,0,0,0-3.23,5.86A4.85,4.85,0,0,0,44.82,88.76Z"/><path class="cls-10" d="M70.55,76a2.53,2.53,0,0,1-1.72,3.19,2.63,2.63,0,0,1-3.28-1.68,2.61,2.61,0,0,1,5-1.51Z"/><path class="cls-3" d="M93.78,63.86l-9.37,2.71.86,2.83,9.37-2.71Z"/><path class="cls-8" d="M94.65,68.1a1.09,1.09,0,0,0,1.45.74l24.13-7a3.44,3.44,0,0,0,2.38-4.31l-.11-.4a3.55,3.55,0,0,0-4.42-2.32L94,61.81a1.07,1.07,0,0,0-.76,1.42Z"/><path class="cls-11" d="M94.65,68.1a1.09,1.09,0,0,0,1.45.74l24.13-7a3.44,3.44,0,0,0,2.38-4.31l-.11-.4a3.55,3.55,0,0,0-4.42-2.32L94,61.81a1.07,1.07,0,0,0-.76,1.42Z"/><polygon class="cls-10" points="93.98 62.72 97.57 61.71 99.17 67.13 95.58 68.14 93.98 62.72"/><path class="cls-11" d="M79.47,86.36,36.92,98.66a10.38,10.38,0,0,1-12.85-6.8l-2.79-9.13A1.14,1.14,0,0,1,22,81.31l60.24-17.4a1.18,1.18,0,0,1,1.45.74l2.79,9.12A10.17,10.17,0,0,1,79.47,86.36Z"/><path class="cls-11" d="M33.7,69s5.7-2.66.7-8.27-14.13-9-10.7-16.22"/><path class="cls-11" d="M34.08,60.08s5.41-3.11,0-8.27-14.82-7.88-12-15.31"/><path class="cls-12" d="M23.27,43.36a7.38,7.38,0,0,0,2,9.41c5.06,4.31,8.9,7.94,8.9,7.94s4.76-5.05,0-8.85S24.43,44.89,23.27,43.36Z"/></svg>