<svg id="Layer_1" data-name="Layer 1" xmlns="http://www.w3.org/2000/svg" viewBox="0 0 144 120"><defs><style>.cls-1{fill:#f2f0ec;}.cls-2,.cls-7{fill:#fff;}.cls-3,.cls-4,.cls-6{fill:none;}.cls-3,.cls-4,.cls-6,.cls-7{stroke:#111;stroke-miterlimit:10;}.cls-3,.cls-7{stroke-width:2px;}.cls-4{stroke-linecap:round;stroke-width:3px;}.cls-5{fill:#b1c6e7;fill-opacity:0.5;}.cls-6{stroke-width:1.3px;}.cls-8{fill:#111;}.cls-9{fill:#97b3df;}</style></defs><rect class="cls-1" x="44.79" y="96.56" width="86.52" height="7.44" rx="3.72"/><path class="cls-2" d="M98.08,79.08a6.09,6.09,0,0,1-5.92,6.23H52.3a6.09,6.09,0,0,1-5.92-6.23V49.47a6.1,6.1,0,0,1,5.92-6.23H92.16a6.1,6.1,0,0,1,5.92,6.23Z"/><path class="cls-3" d="M98,78.86A6,6,0,0,1,92.12,85H52.74a6,6,0,0,1-5.84-6.16V49.56a6,6,0,0,1,5.84-6.16H92.12A6,6,0,0,1,98,49.56Z"/><path class="cls-2" d="M98.19,54.71a3.07,3.07,0,0,1,3-3.12H116.8a6.37,6.37,0,0,1,4.77,2.56l8.22,12a11.59,11.59,0,0,1,1.75,5.67V82.07a3,3,0,0,1-3,3.12H101.58a3.14,3.14,0,0,1-3.09-3.12Z"/><path class="cls-3" d="M98.19,54.71a3.07,3.07,0,0,1,3-3.12H116.8a6.37,6.37,0,0,1,4.77,2.56l8.22,12a11.59,11.59,0,0,1,1.75,5.67V82.07a3,3,0,0,1-3,3.12H101.58a3.14,3.14,0,0,1-3.09-3.12Z"/><path class="cls-4" d="M20.19,56.8H38"/><path class="cls-4" d="M20.19,72.44H38"/><path class="cls-4" d="M12.46,64.62H38"/><path class="cls-2" d="M113.22,60.44a1.23,1.23,0,0,1,1.21-1.24h8.69a2.71,2.71,0,0,1,1.94,1l4.59,6.73a5,5,0,0,1,.72,2.25v1a1.23,1.23,0,0,1-1.21,1.24H114.67a1.23,1.23,0,0,1-1.21-1.24Z"/><path class="cls-5" d="M113.22,60.44a1.23,1.23,0,0,1,1.21-1.24h8.69a2.71,2.71,0,0,1,1.94,1l4.59,6.73a5,5,0,0,1,.72,2.25v1a1.23,1.23,0,0,1-1.21,1.24H114.67a1.23,1.23,0,0,1-1.21-1.24Z"/><path class="cls-2" d="M113.22,60.44a1.23,1.23,0,0,1,1.21-1.24h8.69a2.71,2.71,0,0,1,1.94,1l4.59,6.73a5,5,0,0,1,.72,2.25v1a1.23,1.23,0,0,1-1.21,1.24H114.67a1.23,1.23,0,0,1-1.21-1.24Z"/><path class="cls-5" d="M113.22,60.44a1.23,1.23,0,0,1,1.21-1.24h8.69a2.71,2.71,0,0,1,1.94,1l4.59,6.73a5,5,0,0,1,.72,2.25v1a1.23,1.23,0,0,1-1.21,1.24H114.67a1.23,1.23,0,0,1-1.21-1.24Z"/><path class="cls-6" d="M113.22,60.44a1.23,1.23,0,0,1,1.21-1.24h8.69a2.71,2.71,0,0,1,1.94,1l4.59,6.73a5,5,0,0,1,.72,2.25v1a1.23,1.23,0,0,1-1.21,1.24H114.67a1.23,1.23,0,0,1-1.21-1.24Z"/><path class="cls-7" d="M114.26,96.09a8.79,8.79,0,1,0-8.52-8.79A8.65,8.65,0,0,0,114.26,96.09Z"/><path class="cls-8" d="M114.26,90.05a2.75,2.75,0,1,0-2.66-2.75A2.7,2.7,0,0,0,114.26,90.05Z"/><path class="cls-7" d="M61.33,96.09a8.79,8.79,0,1,0-8.52-8.79A8.65,8.65,0,0,0,61.33,96.09Z"/><path class="cls-8" d="M61.33,90.05a2.75,2.75,0,1,0-2.66-2.75A2.7,2.7,0,0,0,61.33,90.05Z"/><path class="cls-2" d="M97.12,49.77H47.81v26H97.12Z"/><path class="cls-5" d="M97.12,49.77H47.81v26H97.12Z"/><path class="cls-9" d="M97.12,54.42H47.81V73H97.12Z"/><path class="cls-8" d="M77.56,67.55a11.83,11.83,0,0,0,2.18-6.62c0-3.25-1.94-4.75-3.93-4.75-1.7,0-3.94,1.25-3.94,4.5,0,2.12.48,3.75,2.6,6.81a4.86,4.86,0,0,1-3,1.31c-2.85,0-3.33-2.87-3.27-5.37a28.32,28.32,0,0,1,1.21-6.94H66.66a27,27,0,0,0-1.15,7.94c0,4.62,2.67,6.87,5.63,6.87a6.79,6.79,0,0,0,4.73-1.93L77,71.05H80.1Zm-.85-3.25a8.4,8.4,0,0,1-.6,1.19l-.61-.87a6.55,6.55,0,0,1-1.15-3.5c0-1.44.61-2.44,1.52-2.44s1.51,1,1.51,2.56A7.39,7.39,0,0,1,76.71,64.3Z"/><path class="cls-7" d="M123.36,34.08a3.24,3.24,0,0,0,1.59-.45,3.53,3.53,0,0,0,1.21-1.19,4.39,4.39,0,0,0,.5-1.65,4.48,4.48,0,0,0-.33-1.7,3.12,3.12,0,0,0-1.1-1.3,5.73,5.73,0,0,0-.71-.4,1.15,1.15,0,0,0-.39-.11s-.11-.06-.22-.06v-.28c0-.17-.06-.28-.06-.45a4.41,4.41,0,0,0-.27-.85,4.61,4.61,0,0,0-1-1.54,4.47,4.47,0,0,0-1.48-1,4.73,4.73,0,0,0-3.52,0,4.47,4.47,0,0,0-1.48,1,4.61,4.61,0,0,0-1,1.54,4.41,4.41,0,0,0-.27.85,1.17,1.17,0,0,0-.06.45v.28h-.05c-.06,0-.17.06-.22.06a3.41,3.41,0,0,0-.44.17,3.11,3.11,0,0,0-.83.51,3.07,3.07,0,0,0-1,1.59,3.31,3.31,0,0,0-.06,1.92,4,4,0,0,0,.94,1.7,3.51,3.51,0,0,0,1.7.91,1.43,1.43,0,0,0,.5.06h4.88Z"/><path class="cls-7" d="M84.16,22.65H83c0-.15,0-.29,0-.44a3.29,3.29,0,0,0-3.27-3.37,3.07,3.07,0,0,0-1.58.43A4.71,4.71,0,0,0,73.7,16,4.78,4.78,0,0,0,69,20.86V21a3.65,3.65,0,0,0-3.5,3.75,3.73,3.73,0,0,0,1.59,3.09,2.91,2.91,0,0,0,1.86.72H84.21a2.87,2.87,0,0,0,2.84-2.94A2.94,2.94,0,0,0,84.16,22.65Z"/></svg>