<svg id="Layer_1" data-name="Layer 1" xmlns="http://www.w3.org/2000/svg" viewBox="0 0 144 120"><defs><style>.cls-1{fill:#efede6;}.cls-2,.cls-3{fill:#fff;}.cls-2,.cls-4,.cls-6,.cls-8{stroke:#000;stroke-miterlimit:10;stroke-width:2px;}.cls-4{fill:none;}.cls-5,.cls-6{fill:#fab491;}.cls-7,.cls-8{fill:#b1c6e7;}.cls-7{fill-opacity:0.5;}</style></defs><path class="cls-1" d="M72,102.57a40,40,0,1,0-40-40A40,40,0,0,0,72,102.57Z"/><path class="cls-2" d="M66.56,75.54A13.82,13.82,0,1,0,52.74,61.72,13.82,13.82,0,0,0,66.56,75.54Z"/><path class="cls-2" d="M66.37,49.09s2.81-10.77-9.74-10C56.63,39.09,55.63,49.58,66.37,49.09Z"/><path class="cls-2" d="M66.74,49.09s-2.81-10.77,9.74-10C76.48,39.09,77.52,49.57,66.74,49.09Z"/><path class="cls-3" d="M66.74,49.09c.93-1.07,4.74-5,4.74-5Z"/><path class="cls-4" d="M66.74,49.09c.93-1.07,4.74-5,4.74-5"/><path class="cls-3" d="M66.7,49.09c-.92-1.07-4.74-5-4.74-5Z"/><path class="cls-4" d="M66.7,49.09c-.92-1.07-4.74-5-4.74-5"/><path class="cls-5" d="M74.22,89.28c-1.33,1.52-2.15,1.15-1.81-.85L76.93,62a2.78,2.78,0,0,1,4-2.19L91.3,64.32a2.55,2.55,0,0,1,1,4.25Z"/><path class="cls-6" d="M74.22,89.28c-1.33,1.52-2.15,1.15-1.81-.85L76.93,62a2.78,2.78,0,0,1,4-2.19L91.3,64.32a2.55,2.55,0,0,1,1,4.25Z"/><path class="cls-3" d="M86.18,61.61s4.93-6.29-3.55-9.37C82.63,52.24,79,58.83,86.18,61.61Z"/><path class="cls-7" d="M86.18,61.61s4.93-6.29-3.55-9.37C82.63,52.24,79,58.83,86.18,61.61Z"/><path class="cls-4" d="M86.18,61.61s4.93-6.29-3.55-9.37C82.63,52.24,79,58.83,86.18,61.61Z"/><path class="cls-3" d="M86.41,61.72s1.22-7.89,9.26-3.81C95.7,57.91,93.37,65.09,86.41,61.72Z"/><path class="cls-7" d="M86.41,61.72s1.22-7.89,9.26-3.81C95.7,57.91,93.37,65.09,86.41,61.72Z"/><path class="cls-4" d="M86.41,61.72s1.22-7.89,9.26-3.81C95.7,57.91,93.37,65.09,86.41,61.72Z"/><path class="cls-3" d="M86.63,61.43s-5.85-8.3,4.74-11.63C91.41,49.8,95.67,58.43,86.63,61.43Z"/><path class="cls-7" d="M86.63,61.43s-5.85-8.3,4.74-11.63C91.41,49.8,95.67,58.43,86.63,61.43Z"/><path class="cls-4" d="M86.63,61.43s-5.85-8.3,4.74-11.63C91.41,49.8,95.67,58.43,86.63,61.43Z"/><path class="cls-4" d="M82.59,68,90,71.2"/><path class="cls-4" d="M74.89,74.09,80,76.32"/><path class="cls-8" d="M91.48,35.32S82.15,23,98.07,17.43C98.07,17.43,105,30.28,91.48,35.32Z"/><path class="cls-8" d="M91.11,37.87s-1.93-15.3,14.67-12.18C105.78,25.69,105.33,40.28,91.11,37.87Z"/></svg>