<svg width="84" height="16" viewBox="0 0 84 16" fill="none" xmlns="http://www.w3.org/2000/svg">
<path d="M15.5383 5.01996C15.5383 1.61043 13.4109 0.00583867 11.2562 0.00583867C9.43822 0.00583867 6.97405 1.29729 6.97405 4.72432C6.97405 6.9941 7.47428 8.69788 9.80026 11.9012C9.80026 11.9012 8.32681 13.3036 6.49133 13.3036C3.36343 13.3036 2.84178 10.2947 2.93521 7.66316C3.01502 5.48091 3.48021 2.96413 4.28214 0.369547H1.28464C0.443267 3.07814 0.0103035 5.89684 0 8.73289C0 13.6264 2.91964 15.9876 6.10789 15.9876C8.00861 15.9671 9.83385 15.2413 11.2289 13.9512L12.4571 15.7134H15.8225L13.1364 12.0179C13.1364 12.0179 15.5383 9.06743 15.5383 5.01996ZM12.171 8.58119C11.9433 9.0791 11.5326 9.84347 11.5326 9.84347L10.8572 8.91767C10.084 7.84426 9.65815 6.56014 9.63676 5.23779C9.63676 3.71294 10.2985 2.68794 11.2815 2.68794C12.2644 2.68794 12.9398 3.71878 12.9398 5.37978C12.9092 6.48873 12.6474 7.57911 12.171 8.58119V8.58119ZM43.3917 0.0233434C42.3395 0.0132646 41.2959 0.21243 40.3214 0.609246C39.347 1.00606 38.4614 1.5926 37.716 2.33472C36.9706 3.07683 36.3804 3.9597 35.9797 4.93192C35.579 5.90413 35.3759 6.94628 35.3821 7.9977C35.3855 9.58737 35.8616 11.1402 36.7499 12.4589C37.6383 13.7776 38.8989 14.8028 40.3715 15.4041C41.8442 16.0055 43.4625 16.1559 45.0209 15.8362C46.5793 15.5166 48.0074 14.7413 49.1239 13.6089C50.5709 12.1025 51.3789 10.0954 51.3789 8.00742C51.3789 5.91942 50.5709 3.9123 49.1239 2.40592C48.3803 1.63993 47.4889 1.03263 46.5036 0.620767C45.5183 0.208903 44.4597 0.00103172 43.3917 0.00972869V0.0233434ZM43.3917 13.0663C42.7059 13.1019 42.0201 12.9976 41.3759 12.7599C40.7318 12.5222 40.1428 12.156 39.6448 11.6835C39.1468 11.2111 38.7502 10.6423 38.4792 10.0118C38.2082 9.38134 38.0685 8.70234 38.0685 8.01617C38.0685 7.33 38.2082 6.65101 38.4792 6.02053C38.7502 5.39005 39.1468 4.82128 39.6448 4.34884C40.1428 3.87639 40.7318 3.51016 41.3759 3.27244C42.0201 3.03472 42.7059 2.93048 43.3917 2.96607C44.0553 2.9588 44.7138 3.08392 45.3284 3.33411C45.9431 3.5843 46.5016 3.95453 46.9712 4.42311C47.4409 4.89169 47.8123 5.44921 48.0636 6.063C48.3149 6.6768 48.4411 7.33454 48.4349 7.9977C48.4429 8.66253 48.3181 9.32229 48.0678 9.93831C47.8174 10.5543 47.4465 11.1142 46.9768 11.5852C46.5071 12.0561 45.9481 12.4287 45.3325 12.681C44.7169 12.9333 44.0571 13.0603 43.3917 13.0546V13.0663ZM61.5888 0.0233434C60.5368 0.0137895 59.4934 0.213314 58.5192 0.610316C57.545 1.00732 56.6596 1.59388 55.9143 2.33589C55.169 3.0779 54.5788 3.96055 54.1779 4.93253C53.7771 5.90452 53.5736 6.94643 53.5793 7.9977C53.5834 9.58728 54.0602 11.1398 54.9491 12.458C55.838 13.7763 57.0989 14.8008 58.5718 15.4015C60.0446 16.0022 61.6628 16.152 63.221 15.8318C64.7792 15.5115 66.207 14.7358 67.323 13.6031C68.7704 12.0969 69.5787 10.0897 69.5787 8.00159C69.5787 5.91344 68.7704 3.90623 67.323 2.40009C66.5788 1.63473 65.6868 1.02825 64.7012 0.617382C63.7156 0.206509 62.6568 -0.000213906 61.5888 0.00972869V0.0233434ZM61.5888 13.0663C60.5873 13.0694 59.6073 12.7754 58.773 12.2216C57.9388 11.6678 57.2877 10.8791 56.9023 9.95537C56.5168 9.03161 56.4144 8.01435 56.6079 7.03239C56.8014 6.05042 57.2822 5.14791 57.9893 4.43913C58.6964 3.73035 59.5981 3.24718 60.5802 3.0508C61.5623 2.85441 62.5807 2.95364 63.5063 3.33592C64.4319 3.71821 65.2232 4.36635 65.78 5.19829C66.3368 6.03023 66.634 7.00854 66.634 8.00937C66.6392 8.67303 66.5122 9.3311 66.2606 9.9453C66.0089 10.5595 65.6375 11.1176 65.1681 11.587C64.6986 12.0565 64.1404 12.428 63.5259 12.68C62.9115 12.9319 62.253 13.0593 61.5888 13.0546V13.0663ZM84 15.7309H80.5723L74.8382 8.03271L80.5704 0.350097H83.9942L78.1335 8.03465L84 15.7309ZM74.8382 0.365657V15.7309H71.9185V0.365657H74.8382ZM30.1755 10.1897H33.3189C32.9185 11.5886 32.1383 12.8494 31.065 13.8326C29.5755 15.2151 27.6187 15.9847 25.5858 15.9876C24.0079 15.9925 22.464 15.5299 21.1491 14.6583C19.8343 13.7867 18.8076 12.5451 18.1987 11.0905C17.5898 9.63595 17.4261 8.03365 17.7283 6.48614C18.0304 4.93862 18.7849 3.51535 19.8964 2.3962C20.6362 1.63693 21.5209 1.03366 22.4981 0.622073C23.4754 0.21049 24.5253 -0.00103831 25.5858 3.83202e-06C29.1166 3.83202e-06 32.3516 2.47983 33.2936 5.77655H30.1794C29.7648 4.91475 29.1118 4.18966 28.2978 3.68711C27.4837 3.18455 26.5426 2.92556 25.5858 2.94079C24.2436 2.94079 22.9564 3.47357 22.0073 4.42192C21.0583 5.37028 20.5251 6.65652 20.5251 7.9977C20.5251 9.33887 21.0583 10.6251 22.0073 11.5735C22.9564 12.5218 24.2436 13.0546 25.5858 13.0546C26.5454 13.0682 27.4886 12.8052 28.3026 12.2971C29.1165 11.789 29.7668 11.0574 30.1755 10.1897V10.1897Z" fill="#1E1E1E"/>
</svg>
