<svg id="Layer_1" data-name="Layer 1" xmlns="http://www.w3.org/2000/svg" viewBox="0 0 144 120"><defs><style>.cls-1{fill:#fff;}.cls-1,.cls-2{stroke:#111;}.cls-1,.cls-2,.cls-4,.cls-5{stroke-width:2px;}.cls-2{fill:#b1c6e7;}.cls-3{fill:#111;}.cls-4,.cls-5,.cls-6,.cls-7{fill:none;stroke-linecap:round;stroke-linejoin:round;}.cls-4,.cls-6{stroke:#d7d7cd;}.cls-5,.cls-7{stroke:#fa9b69;}.cls-6{stroke-width:3px;}.cls-7{stroke-width:2.5px;}</style></defs><circle class="cls-1" cx="74.55" cy="56.41" r="31"/><circle class="cls-2" cx="74.55" cy="56.41" r="23"/><path class="cls-3" d="M80.18,56.05A3.66,3.66,0,0,0,78.74,55a7.34,7.34,0,0,0-2-.49c-.56-.07-1.16-.11-1.8-.13l-.88-4a1.65,1.65,0,0,1,.66.18A4.15,4.15,0,0,1,76,51.71a3.73,3.73,0,0,0,.79.75,1.19,1.19,0,0,0,.87.08,1.29,1.29,0,0,0,.88-.66,1.54,1.54,0,0,0,.17-1.1,2.92,2.92,0,0,0-.59-1.18,4.09,4.09,0,0,0-1.26-1A5.21,5.21,0,0,0,75,48a6.76,6.76,0,0,0-1.42,0l-.4-1.79a1.07,1.07,0,0,0-1.28-.82,1.09,1.09,0,0,0-.81,1.28l.4,1.79a7.43,7.43,0,0,0-2,.94,4.4,4.4,0,0,0-1.66,2,3.91,3.91,0,0,0-.19,2.42,3.76,3.76,0,0,0,1.15,2.09,4.52,4.52,0,0,0,2.08,1,13.3,13.3,0,0,0,2.5.28L74.45,62a2.71,2.71,0,0,1-1.84-.68,6.14,6.14,0,0,1-.9-1.09,2.55,2.55,0,0,0-.79-.81,1.26,1.26,0,0,0-.9-.13,1.4,1.4,0,0,0-.91.63A1.38,1.38,0,0,0,68.94,61,3.86,3.86,0,0,0,70,62.9a5.09,5.09,0,0,0,2.06,1.28,6.7,6.7,0,0,0,2.87.21l.4,1.78a1.06,1.06,0,0,0,1.27.82,1.09,1.09,0,0,0,.81-1.29l-.39-1.78a7.69,7.69,0,0,0,2.1-1.08,4.89,4.89,0,0,0,1.71-2.22A4.69,4.69,0,0,0,81,57.94a4.46,4.46,0,0,0-.85-1.89Zm-7.49-1.79a4.32,4.32,0,0,1-1-.18,2,2,0,0,1-.81-.42,1.35,1.35,0,0,1-.43-.74,1.6,1.6,0,0,1,.45-1.45,2.91,2.91,0,0,1,1-.71l.78,3.51Zm4.85,6.51a3.15,3.15,0,0,1-1,.77l-.93-4.22.34,0a3.05,3.05,0,0,1,1.36.46A1.74,1.74,0,0,1,78,59,2,2,0,0,1,77.54,60.77Z"/><path class="cls-4" d="M28,68.65l2.29,9.4"/><path class="cls-4" d="M24.55,74.52l9.21-2.34"/><path class="cls-5" d="M54.8,100.78l1.7,7"/><path class="cls-5" d="M52.22,105.15l6.86-1.74"/><path class="cls-6" d="M113.45,81.85l3,9.19"/><path class="cls-6" d="M110.44,88l9-3"/><path class="cls-4" d="M105.85,20.54l1.43,5.87"/><path class="cls-4" d="M103.69,24.21l5.75-1.46"/><path class="cls-7" d="M37.63,12.22,41.44,24"/><path class="cls-7" d="M33.78,20l11.5-3.89"/></svg>