<svg id="Layer_1" data-name="Layer 1" xmlns="http://www.w3.org/2000/svg" viewBox="0 0 144 120"><defs><style>.cls-1,.cls-5,.cls-9{fill:#bdc999;}.cls-1{fill-opacity:0.5;}.cls-1,.cls-11,.cls-12,.cls-2,.cls-3,.cls-4,.cls-5,.cls-7,.cls-8,.cls-9{stroke:#111;}.cls-1,.cls-11,.cls-2,.cls-8,.cls-9{stroke-linecap:round;}.cls-1,.cls-12,.cls-2,.cls-9{stroke-linejoin:round;}.cls-1,.cls-12,.cls-3,.cls-7,.cls-8,.cls-9{stroke-width:2px;}.cls-11,.cls-2,.cls-7,.cls-8{fill:none;}.cls-2,.cls-4,.cls-5{stroke-width:1.3px;}.cls-12,.cls-3,.cls-6{fill:#fff;}.cls-11,.cls-3,.cls-4,.cls-5,.cls-7,.cls-8{stroke-miterlimit:10;}.cls-4{fill:#a7b777;}.cls-10{fill:#111;}.cls-11{stroke-width:3px;}</style></defs><path class="cls-1" d="M88.11,29.79a4.38,4.38,0,0,0-.9-.39,1.62,1.62,0,0,0-.89.16l1.54-2a1.56,1.56,0,0,0-.4-2.4A2,2,0,0,0,85.59,25l1.54-2a1.57,1.57,0,0,0-.4-2.41,2.15,2.15,0,0,0-1.38-.3,2.48,2.48,0,0,0-1.22.61l-.41.47-.57-3.87a1.85,1.85,0,0,0-2-1.47,1.8,1.8,0,0,0-1.54,1.93l.57,3.87-.49-.38a1.72,1.72,0,0,0-2.51.38,1.89,1.89,0,0,0-.33,1.32,2.42,2.42,0,0,0,.65,1.16l2.11,1.47a1.83,1.83,0,0,0-1.7.7,1.88,1.88,0,0,0-.33,1.32,2.46,2.46,0,0,0,.65,1.16l2,1.47a1.79,1.79,0,0,0-1.7.7,1.86,1.86,0,0,0-.33,1.31,2.42,2.42,0,0,0,.65,1.16l3.9,2.71a1.93,1.93,0,0,0,1.46.31,1.59,1.59,0,0,0,1.3-.69l2.84-3.72A1.54,1.54,0,0,0,88.11,29.79Z"/><path class="cls-2" d="M84.86,38.54,83,27.08"/><path class="cls-2" d="M82.75,24.83l-.41-2"/><path class="cls-3" d="M89.73,37.76a7.26,7.26,0,0,0-1.38.16V37.3a5.82,5.82,0,0,0-5.93-5.65A9.15,9.15,0,0,0,81,31.8a5.86,5.86,0,0,0-5.76-4.49,3.43,3.43,0,0,0-.9.08,5.94,5.94,0,0,0-5.52-3.56,5.82,5.82,0,0,0-5.6,4,5.82,5.82,0,0,0-5.6,4.49,4.58,4.58,0,0,0-1.46-.16,5.83,5.83,0,0,0-5.93,5.65v.62a9.24,9.24,0,0,0-1.38-.15,5.66,5.66,0,1,0,0,11.3h41a6.17,6.17,0,0,0,5.93-6.11A5.9,5.9,0,0,0,89.73,37.76Z"/><path class="cls-3" d="M61,47.13a10.15,10.15,0,0,0,10.39-9.91,10.4,10.4,0,0,0-20.78,0A10.15,10.15,0,0,0,61,47.13Z"/><path class="cls-4" d="M61,43a5.74,5.74,0,1,0-6-5.73A5.87,5.87,0,0,0,61,43Z"/><path class="cls-3" d="M50.11,51.78A9,9,0,0,0,59.36,43a9.27,9.27,0,0,0-18.51,0A9.05,9.05,0,0,0,50.11,51.78Z"/><path class="cls-5" d="M50.11,48.06A5.12,5.12,0,1,0,44.75,43,5.24,5.24,0,0,0,50.11,48.06Z"/><path class="cls-3" d="M40,44.35H94.85a2.1,2.1,0,0,1,2,2.16c.08,4.88-.57,16.57-8.45,23H46.62s-8.93-5.88-8.45-23A2,2,0,0,1,40,44.35Z"/><path class="cls-6" d="M88.35,72.14a1.59,1.59,0,0,1-1.62,1.55H48.08a1.6,1.6,0,0,1-1.63-1.55V70.9a1.59,1.59,0,0,1,1.63-1.54H86.73a1.58,1.58,0,0,1,1.62,1.54Z"/><path class="cls-7" d="M88.35,72.14a1.59,1.59,0,0,1-1.62,1.55H48.08a1.6,1.6,0,0,1-1.63-1.55V70.9a1.59,1.59,0,0,1,1.63-1.54H86.73a1.58,1.58,0,0,1,1.62,1.54Z"/><path class="cls-6" d="M91.19,49.77s.57,5.88-4.87,13.24Z"/><path class="cls-8" d="M91.19,49.77s.57,5.88-4.87,13.24"/><path class="cls-9" d="M95.5,37.84a1.83,1.83,0,0,0-.49-.77,2.3,2.3,0,0,0-.89-.39l2.51-.77a1.65,1.65,0,0,0,1.14-2.17,1.85,1.85,0,0,0-1.38-1.16l2.52-.78A1.66,1.66,0,0,0,100,29.63a1.82,1.82,0,0,0-.89-1,2.75,2.75,0,0,0-1.38-.16l-.57.16,1.87-3.49a1.67,1.67,0,0,0-.81-2.32,1.85,1.85,0,0,0-2.44.77L94,27.08l-.16-.54a1.77,1.77,0,0,0-2.27-1.09,2,2,0,0,0-1.06.85,2.43,2.43,0,0,0-.16,1.32l.81,2.4a1.84,1.84,0,0,0-1.78-.39,1.91,1.91,0,0,0-1.06.86,2.39,2.39,0,0,0-.16,1.31l.81,2.32a1.89,1.89,0,0,0-1.79-.38,1.86,1.86,0,0,0-1,.85,2.33,2.33,0,0,0-.16,1.32l1.46,4.33a1.67,1.67,0,0,0,1.05,1,1.89,1.89,0,0,0,1.46.15L94.44,40A1.65,1.65,0,0,0,95.5,37.84Z"/><path class="cls-2" d="M87.54,43.26,93,32.89"/><path class="cls-2" d="M94.12,30.87,95,29"/><path class="cls-10" d="M74.55,32a.85.85,0,1,0-.9-.85A.87.87,0,0,0,74.55,32Z"/><path class="cls-10" d="M76.33,41.25a.85.85,0,1,0-.89-.85A.87.87,0,0,0,76.33,41.25Z"/><path class="cls-10" d="M78.28,36.68a1,1,0,1,0-1-1A1,1,0,0,0,78.28,36.68Z"/><path class="cls-10" d="M82.34,40.86a.78.78,0,1,0-.81-.77A.79.79,0,0,0,82.34,40.86Z"/><path class="cls-11" d="M52,83.45H89.88"/><path class="cls-11" d="M43.6,83.45h2.92"/><path class="cls-11" d="M52,90.17H89.88"/><path class="cls-11" d="M43.6,90.17h2.92"/><path class="cls-11" d="M52,96.72H89.84"/><path class="cls-11" d="M43.6,96.89h2.92"/><path class="cls-12" d="M99.73,83.48a2.11,2.11,0,0,0-1.19,2.75l.65,1.94h0l-.92-2.82a2.19,2.19,0,0,0-2.65-1.57,2.11,2.11,0,0,0-1.19,2.74l.92,2.82L94,85.42a2.2,2.2,0,0,0-2.65-1.57,2.12,2.12,0,0,0-1.19,2.74l-2.3-7a2.19,2.19,0,0,0-2.65-1.57A2.11,2.11,0,0,0,84,80.81l4.15,12.37a3,3,0,0,0,.3.62V94l-3-2.6a2.28,2.28,0,0,0-3.11-.11,2.08,2.08,0,0,0,.43,3l7.9,6.88s2.8,3.33,4.68,2.78l8.25-2.64c1.88-.58,2.3-3,2.19-4.53l-1.73-6.48-1.72-5.2A2.24,2.24,0,0,0,99.73,83.48Z"/><path class="cls-8" d="M90,86l1.61,4.65"/></svg>